HIERARCHY
ROOT Bone
{
	OFFSET 0.000000 0.000000 0.000000
	CHANNELS 6 Xposition Yposition Zposition Xrotation Yrotation Zrotation
	JOINT Bone.001
	{
		OFFSET 0.003187 0.000000 0.108367
		CHANNELS 3 Xrotation Yrotation Zrotation
		JOINT Bone.002
		{
			OFFSET 0.015936 0.000000 0.098805
			CHANNELS 3 Xrotation Yrotation Zrotation
			JOINT Bone.003
			{
				OFFSET 0.012749 0.000000 0.098805
				CHANNELS 3 Xrotation Yrotation Zrotation
				JOINT Bone.004
				{
					OFFSET 0.012749 0.000000 0.098805
					CHANNELS 3 Xrotation Yrotation Zrotation
					JOINT Bone.005
					{
						OFFSET 0.012749 0.000000 0.098805
						CHANNELS 3 Xrotation Yrotation Zrotation
						JOINT Bone.006
						{
							OFFSET 0.006375 0.000000 0.098805
							CHANNELS 3 Xrotation Yrotation Zrotation
							JOINT Bone.007
							{
								OFFSET 0.006375 0.000000 0.098805
								CHANNELS 3 Xrotation Yrotation Zrotation
								End Site
								{
									OFFSET 0.009562 0.000000 0.098805
								}
							}
						}
					}
				}
			}
		}
	}
}
MOTION
Frames: 16
Frame Time: 0.041667
0.000000 0.000000 0.000000 0.000000 -68.198591 0.000000 0.000000 -1.029155 0.000000 0.000000 22.954715 0.000000 0.000000 13.041319 0.000000 0.000000 2.852585 0.000000 0.000000 0.000000 0.000000 0.000000 3.029250 0.000000 0.000000 -1.536706 0.000000 
0.000000 0.000000 0.000000 0.000000 -70.016893 0.000000 0.000000 0.789148 0.000000 0.000000 21.625183 0.000000 0.000000 14.370851 0.000000 0.000000 1.404264 0.000000 0.000000 1.448321 0.000000 0.000000 3.029250 0.000000 0.000000 -3.029250 0.000000 
0.000000 0.000000 0.000000 0.000000 -70.559965 0.000000 0.000000 2.007701 0.000000 0.000000 19.561351 0.000000 0.000000 16.255687 0.000000 0.000000 0.000000 0.000000 0.000000 2.990345 0.000000 0.000000 1.566291 0.000000 0.000000 -1.566291 0.000000 
0.000000 0.000000 0.000000 0.000000 -69.676863 0.000000 0.000000 -0.669313 0.000000 0.000000 14.561878 0.000000 0.000000 23.049072 0.000000 0.000000 0.000000 0.000000 0.000000 1.471495 0.000000 0.000000 3.085142 0.000000 0.000000 -1.566291 0.000000 
0.000000 0.000000 0.000000 0.000000 -69.676863 0.000000 0.000000 -0.669313 0.000000 0.000000 14.561878 0.000000 0.000000 23.049072 0.000000 0.000000 0.000000 0.000000 0.000000 1.471495 0.000000 0.000000 3.085142 0.000000 0.000000 -1.566291 0.000000 
0.000000 0.000000 0.000000 0.000000 -69.227745 0.000000 0.000000 -0.449118 0.000000 0.000000 16.146098 0.000000 0.000000 21.335032 0.000000 0.000000 1.545066 0.000000 0.000000 0.000000 0.000000 0.000000 4.940714 0.000000 0.000000 -3.344650 0.000000 
0.000000 0.000000 0.000000 0.000000 -69.863697 0.000000 0.000000 0.186833 0.000000 0.000000 20.491947 0.000000 0.000000 15.494849 0.000000 0.000000 3.039400 0.000000 0.000000 3.243093 0.000000 0.000000 0.000000 0.000000 0.000000 0.000000 0.000000 
0.000000 0.000000 0.000000 0.000000 -70.016893 0.000000 0.000000 0.340030 0.000000 0.000000 24.676863 0.000000 0.000000 12.804266 0.000000 0.000000 1.545066 0.000000 0.000000 3.243093 0.000000 0.000000 1.697622 0.000000 0.000000 -1.697622 0.000000 
0.000000 0.000000 0.000000 0.000000 -70.016893 0.000000 0.000000 0.340030 0.000000 0.000000 24.676863 0.000000 0.000000 12.804266 0.000000 0.000000 1.545066 0.000000 0.000000 3.243093 0.000000 0.000000 1.697622 0.000000 0.000000 -1.697622 0.000000 
0.000000 0.000000 0.000000 0.000000 -69.227745 0.000000 0.000000 -2.337306 0.000000 0.000000 22.380135 0.000000 0.000000 16.989182 0.000000 0.000000 3.141130 0.000000 0.000000 0.000000 0.000000 0.000000 1.647029 0.000000 0.000000 0.000000 0.000000 
0.000000 0.000000 0.000000 0.000000 -69.443955 0.000000 0.000000 0.481466 0.000000 0.000000 23.962489 0.000000 0.000000 11.821488 0.000000 0.000000 3.196872 0.000000 0.000000 1.680884 0.000000 0.000000 1.735705 0.000000 0.000000 0.000000 0.000000 
0.000000 0.000000 0.000000 0.000000 -69.443955 0.000000 0.000000 2.376055 0.000000 0.000000 22.067900 0.000000 0.000000 13.392498 0.000000 0.000000 3.306746 0.000000 0.000000 0.000000 0.000000 0.000000 1.735705 0.000000 0.000000 -1.735705 0.000000 
0.000000 0.000000 0.000000 0.000000 -68.962489 0.000000 0.000000 1.128835 0.000000 0.000000 18.648738 0.000000 0.000000 18.534248 0.000000 0.000000 3.243093 0.000000 0.000000 0.000000 0.000000 0.000000 1.697622 0.000000 0.000000 -1.697622 0.000000 
0.000000 0.000000 0.000000 0.000000 -68.198591 0.000000 0.000000 0.364936 0.000000 0.000000 25.559965 0.000000 0.000000 13.219085 0.000000 0.000000 1.647029 0.000000 0.000000 1.697622 0.000000 0.000000 0.000000 0.000000 0.000000 0.000000 0.000000 
0.000000 0.000000 0.000000 0.000000 -66.801409 0.000000 0.000000 -1.032245 0.000000 0.000000 22.833654 0.000000 0.000000 15.945396 0.000000 0.000000 3.344650 0.000000 0.000000 0.000000 0.000000 0.000000 0.000000 0.000000 0.000000 0.000000 0.000000 
0.000000 0.000000 0.000000 0.000000 -67.833654 0.000000 0.000000 0.765755 0.000000 0.000000 20.599099 0.000000 0.000000 18.168045 0.000000 0.000000 1.735705 0.000000 0.000000 0.000000 0.000000 0.000000 3.632951 0.000000 0.000000 -3.632951 0.000000 
